<?xml version="1.0" encoding="UTF-8" standalone="no"?>
<!-- Created with Inkscape (http://www.inkscape.org/) -->

<svg
   width="210mm"
   height="297mm"
   viewBox="0 0 210 297"
   version="1.1"
   id="svg1473"
   xmlns="http://www.w3.org/2000/svg"
   xmlns:svg="http://www.w3.org/2000/svg">
  <defs
     id="defs1470" />
  <g
     id="layer1">
    <path
       d="m 122.52448,64.795912 c 0.0853,0.001 0.17148,0.001 0.25678,0.0021 0,4.675267 -0.0533,9.350534 0.0117,14.025831 0.12519,9.017789 -1.47283,7.109472 7.61789,8.058477 11.88848,1.241748 20.4646,-4.662952 22.66461,-15.103229 0.77237,-3.660523 0.82682,-7.416569 0.40673,-11.1603 -0.88432,-7.884898 -5.11076,-13.071672 -12.5756,-15.659921 -5.20319,-1.805601 -10.57586,-1.523165 -15.94955,-1.296191 -1.96072,0.08327 -2.50198,1.033261 -2.47013,2.915899 0.10161,6.071087 0.0381,12.145261 0.0381,18.217367 m -0.003,68.416015 c 0.0873,0 0.17352,0.001 0.2597,0.001 0,6.08239 0.13247,12.16989 -0.0658,18.24611 -0.0792,2.43726 0.85657,3.25586 3.05349,3.51367 4.31891,0.50632 8.60387,0.68814 12.89504,-0.26698 8.12524,-1.80662 13.2771,-6.97799 14.56916,-15.05703 0.57209,-3.57321 0.70971,-7.21114 0.24543,-10.83777 -0.92953,-7.25222 -4.71841,-12.35581 -11.56496,-14.95431 -5.45689,-2.07267 -11.13048,-2.33251 -16.91913,-1.63307 -1.934,0.2332 -2.54921,0.82166 -2.51328,2.75772 0.11005,6.07519 0.0402,12.15347 0.0402,18.2307 M 72.736123,86.742714 c -6.428492,30.882316 -12.896027,61.641396 -19.158161,92.442566 -0.727184,3.5763 -1.541653,5.28946 -5.794794,5.21347 -9.231428,-0.16537 -18.482364,0.35947 -27.713775,0.82885 -3.073031,0.15605 -3.719065,-0.6378 -3.006269,-3.62765 7.420685,-31.12984 14.747874,-62.28333 22.0679,-93.436785 5.401432,-22.987139 10.818266,-45.970172 16.057417,-68.994286 0.724069,-3.180867 1.850786,-4.265485 5.264828,-4.220271 25.056686,0.334813 50.117521,0.351262 75.175251,0.618297 8.74869,0.09346 17.53231,0.04513 25.91946,3.397593 15.99066,6.389479 24.59453,18.368353 26.95374,35.127246 2.32634,16.531919 -2.30788,30.796049 -14.35348,42.456503 -1.98023,1.91757 -0.34512,2.34998 0.759,3.24148 20.48723,16.527813 23.07856,52.591783 4.95978,71.560963 -8.36249,8.75279 -18.73397,13.37158 -30.98605,13.36954 -17.09991,-0.003 -34.20186,-0.076 -51.300715,0.0687 -2.72177,0.0233 -3.53935,-0.95311 -4.05185,-3.39654 -6.47988,-30.88027 -13.052167,-61.74101 -19.600843,-92.607929 -0.140621,-0.664531 -0.04222,-1.432795 -1.191439,-2.041834"
       style="fill:#ffffff;fill-opacity:1;fill-rule:nonzero;stroke:none;stroke-width:1.02708"
       id="path142" />
  </g>
</svg>
